PathFileType        4      (X/Y/Z)      C:\Users\pc\Desktop\IMUTRC\Sujet_01\Sujet_01_velo_80.trc         
DataRate	CameraRate	NumFrames	NumMarkers	Units	OrigDataRate	OrigDataStartFrame	OrigNumFrames
60.0	60.0	4	64	mm	60.0	247	984
Frame#	Time	pHipOrigin			pRightASI			pLeftASI			pRightCSI			pLeftCSI			pRightIschialTub			pLeftIschialTub			pSacrum			pL5SpinalProcess			pL3SpinalProcess			pT12SpinalProcess			pIJ			pT4SpinalProcess			pT8SpinalProcess			pPX			pC7SpinalProcess			pTopOfHead			pRightAuricularis			pLeftAuricularis			pBackOfHead			pRightAcromion			pLeftAcromion			pRightArmLatEpicondyle			pRightArmMedEpicondyle			pLeftArmLatEpicondyle			pLeftArmMedEpicondyle			pRightUlnarStyloid			pRightRadialStyloid			pRightOlecranon			pLeftUlnarStyloid			pLeftRadialStyloid			pLeftOlecranon			pRightTopOfHand			pRightPinky			pRightBallHand			pLeftTopOfHand			pLeftPinky			pLeftBallHand			pRightGreaterTrochanter			pRightKneeLatEpicondyle			pRightKneeMedEpicondyle			pRightPatella			pLeftGreaterTrochanter			pLeftKneeLatEpicondyle			pLeftKneeMedEpicondyle			pLeftPatella			pRightTibialTub			pRightLatMalleolus			pRightMedMalleolus			pLeftTibialTub			pLeftLatMalleolus			pLeftMedMalleolus			pRightHeelFoot			pRightFirstMetatarsal			pRightFifthMetatarsal			pRightPivotFoot			pRightHeelCenter			pRightToe			pLeftHeelFoot			pLeftFirstMetatarsal			pLeftFifthMetatarsal			pLeftPivotFoot			pLeftHeelCenter			pLeftToe			
		X1	Y1	Z1	X2	Y2	Z2	X3	Y3	Z3	X4	Y4	Z4	X5	Y5	Z5	X6	Y6	Z6	X7	Y7	Z7	X8	Y8	Z8	X9	Y9	Z9	X10	Y10	Z10	X11	Y11	Z11	X12	Y12	Z12	X13	Y13	Z13	X14	Y14	Z14	X15	Y15	Z15	X16	Y16	Z16	X17	Y17	Z17	X18	Y18	Z18	X19	Y19	Z19	X20	Y20	Z20	X21	Y21	Z21	X22	Y22	Z22	X23	Y23	Z23	X24	Y24	Z24	X25	Y25	Z25	X26	Y26	Z26	X27	Y27	Z27	X28	Y28	Z28	X29	Y29	Z29	X30	Y30	Z30	X31	Y31	Z31	X32	Y32	Z32	X33	Y33	Z33	X34	Y34	Z34	X35	Y35	Z35	X36	Y36	Z36	X37	Y37	Z37	X38	Y38	Z38	X39	Y39	Z39	X40	Y40	Z40	X41	Y41	Z41	X42	Y42	Z42	X43	Y43	Z43	X44	Y44	Z44	X45	Y45	Z45	X46	Y46	Z46	X47	Y47	Z47	X48	Y48	Z48	X49	Y49	Z49	X50	Y50	Z50	X51	Y51	Z51	X52	Y52	Z52	X53	Y53	Z53	X54	Y54	Z54	X55	Y55	Z55	X56	Y56	Z56	X57	Y57	Z57	X58	Y58	Z58	X59	Y59	Z59	X60	Y60	Z60	X61	Y61	Z61	X62	Y62	Z62	X63	Y63	Z63	X64	Y64	Z64	
247	4.1	0.0	1249.99432	7.654007714701862E-14	18.10719999999998	1339.2156	139.18042000000008	106.79064000000001	1336.22762	-93.8825399999999	-8.844440000000013	1402.56092	104.40025000000009	64.06243000000002	1400.17053	-87.1894499999999	-68.96273	1201.23038	29.222510000000067	-32.50928999999999	1200.03519	-66.57233999999993	-56.29367	1272.82254	-21.692779999999928	-17.39008	1366.5258	-5.258859999999919	36.5132	1458.49603	15.477770000000094	91.91047	1538.33503	37.11079000000011	322.40376	1547.41851	90.47623000000014	226.60891	1649.01005	82.82699000000012	158.72185	1606.16233	61.49276000000012	232.22632	1484.90983	61.31349000000012	266.22961	1673.5713	94.83870000000013	486.80278	1780.95954	108.28463000000018	414.4935	1721.43885	175.27529000000018	417.78029	1715.2836	43.62460000000016	381.80493	1757.05565	106.79064000000015	202.82452999999998	1634.66772	255.35334000000014	310.27253	1634.72748	-80.85491999999986	265.75152999999995	1421.92307	340.15240000000017	251.34942999999998	1394.67263	295.93019000000015	424.47338	1420.36932	-81.99034999999986	383.95628	1392.52128	-59.879249999999864	361.84517999999997	1255.55198	421.2463500000001	393.15927999999997	1258.59972	390.47009000000014	241.72811999999996	1410.86752	333.4593100000002	567.53818	1272.2847	-79.00236999999986	569.62977	1275.15317	-35.198479999999854	402.12324	1408.95521	-93.76301999999987	522.4195799999999	1226.68803	487.0418200000001	441.8634599999999	1232.3652	483.4562300000001	395.25086999999996	1238.63997	434.45325000000014	721.89757	1247.36489	8.605400000000165	670.32492	1253.28111	-53.365439999999836	602.91594	1256.92645	-60.89516999999985	-39.620700000000014	1250.29312	144.73807000000008	244.23802999999998	1133.2238	303.6989600000001	279.3169899999999	1125.69408	246.9272100000001	273.58004999999997	1165.25502	275.2533300000001	49.720100000000016	1228.48082	-139.5987299999999	276.14972	967.74911	-121.55129999999991	277.58396	966.67343	-54.38135999999991	303.51968	993.80435	-85.8747399999999	298.38033999999993	1096.23253	298.3803400000001	179.33895999999996	735.46303	293.83860000000004	211.07136999999997	730.62249	242.92331000000007	312.18484	925.73801	-99.91826999999991	121.31226000000002	612.7763	-199.71702999999994	125.19664000000002	597.65708	-141.63056999999995	156.98881999999998	601.72074	217.28639000000007	311.28844999999995	576.98022	318.9376900000001	246.62841999999995	572.43848	378.8169400000001	296.76682999999997	571.00424	366.0881200000001	186.03204999999997	593.05558	248.06265000000005	346.78572999999994	563.53428	419.5730800000001	4.960060000000022	519.84991	-172.64586999999997	146.11255	414.4935	-111.45189999999995	152.26780000000002	407.68089	-199.17918999999995	169.00052000000002	396.14727	-151.61043999999995	37.88767000000002	492.18116	-168.22364999999996	229.47737000000004	354.91305	-144.14046999999994	
248	4.117	0.0	1249.99432	7.654007714701862E-14	18.10719999999998	1338.9168	139.3597000000001	106.19304000000001	1336.88497	-93.8825399999999	-9.203000000000012	1402.26212	104.81857000000008	63.22580000000001	1400.64861	-87.0101699999999	-68.66393	1200.87182	29.282270000000068	-32.449529999999996	1200.03519	-66.63209999999992	-56.47295	1272.64326	-21.51349999999993	-17.86816	1366.46604	-4.960059999999919	35.85584	1458.61555	15.836330000000093	91.07383	1538.57407	37.40959000000011	321.4476	1548.07587	90.71527000000015	225.59299	1649.48813	83.00627000000013	157.76569	1606.52088	61.67204000000012	231.44944	1485.38791	61.67204000000012	265.15393	1674.1689	94.95821000000012	485.96614	1781.3181	108.76271000000017	413.41783	1721.85717	175.57409000000018	416.82413	1715.94095	43.92340000000016	380.90853	1757.65325	107.08944000000015	201.74885999999998	1635.20556	255.59238000000013	309.19686	1634.96652	-80.55611999999986	265.15392999999995	1422.28163	339.97312000000016	250.69207999999998	1395.03119	295.7509200000002	423.63674	1420.78764	-81.63178999999985	383.1794	1392.87984	-59.52068999999987	360.8292599999999	1255.85078	421.3061100000001	392.20311999999996	1258.83876	390.6493700000001	241.01099999999997	1411.28584	333.2800300000002	566.64178	1272.52374	-78.88284999999986	568.73337	1275.39221	-35.07895999999985	401.2866	1409.31377	-93.40445999999987	521.5231799999999	1227.4649	487.1613400000001	440.96705999999995	1232.90304	483.57575000000014	394.29470999999995	1238.99853	434.6325300000001	720.88165	1247.06609	8.724920000000164	669.36876	1253.16159	-53.245919999999835	601.95978	1257.04597	-60.77564999999985	-40.457340000000016	1247.54417	144.61855000000008	237.06685999999996	1114.99709	302.62328000000014	272.74341999999996	1108.60279	246.0308200000001	267.84311999999994	1147.14782	275.8509200000001	50.61649000000001	1229.37721	-139.53897999999992	287.44431	978.20706	-119.34018999999992	288.51999	977.43018	-52.17024999999991	313.55932	1005.4575	-83.6636299999999	292.34460999999993	1079.7986	298.3205800000001	183.34285999999997	715.86183	296.64731000000006	215.73262999999997	711.32009	246.15034000000009	321.20856	935.71789	-98.9023599999999	118.08523000000002	632.07869	-203.36236999999994	121.85009000000001	615.64476	-145.57470999999995	163.86118999999997	581.40244	220.69269000000006	318.69864999999993	560.00845	322.4037600000001	254.15813999999995	554.33128	382.2830100000001	304.3563199999999	553.8532	369.5541800000001	193.14344999999997	573.39463	251.52871000000005	354.55448999999993	547.51867	423.0391500000001	-1.3744699999999783	543.09645	-178.56207999999998	135.35579000000004	431.40551	-118.68282999999995	141.75009000000003	426.02713	-206.52962999999994	157.76569000000003	412.93975	-159.08040999999994	30.477460000000022	514.11298	-174.49841999999998	216.62903000000003	369.37491	-152.08851999999993	
249	4.133	0.0	1249.99432	7.654007714701862E-14	18.346239999999984	1338.73752	139.41946000000007	105.35641000000001	1337.60209	-94.2410999999999	-9.442040000000013	1402.02308	105.11737000000008	62.15012000000001	1401.06692	-86.9504099999999	-68.30537	1200.51326	29.461550000000067	-32.50928999999999	1200.03519	-66.57233999999993	-56.65223	1272.40422	-21.21469999999993	-18.406	1366.40628	-4.721019999999919	35.0192	1458.73507	15.955850000000092	89.99816	1538.87287	37.40959000000011	320.43168	1549.09178	90.59575000000014	224.27828	1650.26501	82.70747000000013	156.5705	1607.05872	61.55252000000012	230.55305	1486.10502	61.73180000000012	263.83922	1675.0653	94.65942000000013	484.77095	1782.2145	108.76271000000017	412.04335	1722.6938	175.39481000000018	415.62894	1717.01663	43.74412000000016	379.65358	1758.66916	106.91016000000016	200.49389999999997	1635.98243	255.35334000000014	307.9419	1635.44459	-80.73539999999986	264.3770599999999	1422.87923	339.43528000000015	249.85543999999996	1395.68855	295.21308000000016	422.56107	1421.32547	-81.69154999999986	382.10373	1393.41768	-59.64020999999987	359.51454999999993	1256.38861	421.1268300000001	390.94816999999995	1259.25708	390.5298500000001	240.23411999999996	1411.9432	332.74219000000016	565.38683	1272.8823	-79.06212999999985	567.47842	1275.69101	-35.198479999999854	400.21093	1409.91136	-93.46421999999987	520.3877499999999	1228.30154	486.9820600000001	439.83162999999996	1233.56039	483.4562300000001	393.0995199999999	1239.47661	434.45325000000014	719.56694	1246.94657	8.545640000000166	668.05405	1253.22135	-53.365439999999836	600.64507	1257.28501	-60.89516999999985	-41.35373000000001	1244.61595	144.3795100000001	228.34193999999997	1094.61902	300.41217000000006	264.67584999999997	1089.41992	244.11851000000007	260.79146999999995	1126.76975	275.61189000000013	51.21409000000001	1230.15409	-139.4792199999999	298.7389	989.74069	-117.0095599999999	299.69506	989.50165	-49.8396199999999	323.53919	1018.3656	-81.45251999999991	284.9343999999999	1061.09381	297.60347000000013	185.49420999999998	694.40809	298.55962000000005	218.78037999999998	690.16515	248.60049000000006	330.53108	946.95272	-97.7669199999999	116.05340000000002	652.6958	-206.35035999999994	119.69874000000002	635.00692	-148.98100999999994	168.40292999999997	559.76941	222.66476000000006	323.59894999999995	540.40726	324.1965500000001	259.23771999999997	533.71417	384.07580000000013	309.37612999999993	534.01297	371.3469800000001	197.80470999999997	552.12017	253.44102000000007	359.69382999999993	528.27603	424.7721800000001	-6.095489999999978	567.53818	-183.76117999999997	126.45159000000001	450.05054	-125.31615999999995	133.08492000000004	446.1064	-213.22271999999995	148.38342000000003	431.64455	-165.95277999999993	24.68077000000002	537.35951	-180.05606999999998	205.63324000000003	385.98811	-159.49872999999994	
250	4.15	0.0	1249.99432	7.654007714701862E-14	18.884079999999983	1338.49848	139.47922000000008	104.34049000000002	1338.19969	-94.7191799999999	-9.322520000000013	1401.78404	105.53569000000009	60.95493000000001	1401.545	-87.0699299999999	-67.88706	1200.1547	29.820110000000067	-32.748329999999996	1200.03519	-66.45281999999993	-56.89127	1272.22494	-20.796389999999928	-18.88408	1366.34652	-4.481979999999919	34.24233	1458.85459	16.075370000000092	89.042	1539.23143	37.29007000000011	319.47553	1550.28698	90.29696000000014	223.02332	1651.1614	82.16963000000013	155.3753	1607.65632	61.134210000000124	229.71641	1486.94166	61.67204000000012	262.5245	1676.14097	94.00206000000013	483.45623	1783.40969	108.40415000000017	410.60912	1723.889	174.85698000000016	414.43374	1718.27158	43.20629000000016	378.33887	1759.92412	106.37232000000016	199.35846999999998	1636.69955	254.99478000000013	306.62719	1636.04219	-81.15371999999986	263.7794599999999	1423.47682	338.77792000000017	249.25783999999996	1396.28615	294.5557200000002	421.36587	1421.86331	-81.99034999999986	380.84877	1393.89576	-59.879249999999864	358.14007999999995	1256.86669	420.9475500000001	389.6334499999999	1259.49612	390.4103300000001	239.57676999999998	1412.66031	332.0250700000002	563.95259	1273.1811	-79.18164999999986	566.04418	1275.9898	-35.37775999999985	399.01573	1410.38944	-93.70325999999987	519.1925499999999	1229.25769	486.7430200000001	438.57667999999995	1234.21775	483.2769600000001	391.84455999999994	1239.95469	434.3337300000001	718.07294	1246.7673	8.426120000000164	666.56005	1253.22135	-53.484959999999845	599.21084	1257.46429	-61.07444999999985	-42.070850000000014	1241.74748	144.0807100000001	218.66085999999999	1073.58359	296.82659000000007	255.65212999999997	1069.40041	240.8914800000001	252.78366999999997	1105.43553	273.9386100000001	51.632410000000014	1231.05049	-139.53897999999992	310.03349	1002.52927	-115.0374799999999	310.87013	1002.76831	-47.8675499999999	333.33979	1032.52866	-79.5999599999999	276.32899999999995	1041.67189	295.3326000000001	185.43444999999997	672.77507	298.44010000000003	219.37797999999998	668.89068	248.89929000000006	339.8536	959.68154	-96.7510099999999	116.11316000000002	673.73122	-208.74074999999993	119.57922000000002	655.02643	-151.67019999999994	169.83715999999998	538.19615	222.06717000000006	325.21245999999996	519.73039	323.4794300000001	260.85122999999993	512.14091	383.3586800000001	311.04940999999997	512.91778	370.6298600000001	199.29870999999997	530.66642	252.78367000000006	361.36709999999994	507.41989	423.9953000000001	-8.306599999999976	591.62135	-188.12363999999997	120.59514000000001	469.53222	-131.05308999999994	127.52727000000003	466.72351	-218.95965999999996	142.16840000000002	451.12622	-171.86898999999994	21.63302000000002	560.54629	-184.83684999999997	198.10351000000003	403.67699	-165.95277999999993	
